<svg width="18" height="18" viewBox="0 0 18 18" fill="none" xmlns="http://www.w3.org/2000/svg">
<path d="M9.33301 14.291C9.51787 14.4297 9.73303 14.5224 9.96076 14.5616C10.1885 14.6007 10.4223 14.5852 10.6428 14.5163C10.8634 14.4474 11.0644 14.3271 11.2294 14.1653C11.3943 14.0034 11.5184 13.8047 11.5915 13.5855C11.6646 13.3663 11.6845 13.1329 11.6497 12.9044C11.6148 12.676 11.5262 12.4591 11.3911 12.2716C11.256 12.0842 11.0782 11.9315 10.8725 11.8262C10.6669 11.7209 10.4391 11.666 10.208 11.666H1.45801" stroke="#00A63E" stroke-width="1.45833" stroke-linecap="round" stroke-linejoin="round"/>
<path d="M12.7601 5.83268C12.9465 5.5841 13.1934 5.3873 13.4773 5.26097C13.7612 5.13464 14.0727 5.08298 14.3821 5.11088C14.6916 5.13879 14.9888 5.24534 15.2455 5.42041C15.5022 5.59549 15.7099 5.83328 15.8489 6.1112C15.9879 6.38912 16.0535 6.69796 16.0395 7.00837C16.0255 7.31878 15.9324 7.62048 15.7691 7.8848C15.6057 8.14912 15.3775 8.36729 15.1061 8.51861C14.8347 8.66992 14.5292 8.74935 14.2184 8.74935H1.45801" stroke="#00A63E" stroke-width="1.45833" stroke-linecap="round" stroke-linejoin="round"/>
<path d="M7.14551 3.20768C7.33037 3.06904 7.54553 2.9763 7.77326 2.93713C8.00099 2.89795 8.23477 2.91345 8.45534 2.98235C8.6759 3.05125 8.87693 3.17158 9.04187 3.33341C9.20681 3.49525 9.33093 3.69397 9.404 3.91318C9.47708 4.1324 9.49701 4.36585 9.46216 4.59428C9.42731 4.82271 9.33868 5.03959 9.20357 5.22705C9.06846 5.41451 8.89073 5.56718 8.68504 5.67247C8.47935 5.77777 8.25158 5.83268 8.02051 5.83268H1.45801" stroke="#00A63E" stroke-width="1.45833" stroke-linecap="round" stroke-linejoin="round"/>
</svg>
