<svg width="18" height="18" viewBox="0 0 18 18" fill="none" xmlns="http://www.w3.org/2000/svg">
<path d="M7.2915 8.75H10.2082" stroke="#155DFC" stroke-width="1.45833" stroke-linecap="round" stroke-linejoin="round"/>
<path d="M7.2915 5.83398H10.2082" stroke="#155DFC" stroke-width="1.45833" stroke-linecap="round" stroke-linejoin="round"/>
<path d="M10.2082 15.3118V13.1243C10.2082 12.7376 10.0545 12.3666 9.78103 12.0932C9.50754 11.8197 9.13661 11.666 8.74984 11.666C8.36306 11.666 7.99213 11.8197 7.71864 12.0932C7.44515 12.3666 7.2915 12.7376 7.2915 13.1243V15.3118" stroke="#155DFC" stroke-width="1.45833" stroke-linecap="round" stroke-linejoin="round"/>
<path d="M4.37516 7.29102H2.91683C2.53006 7.29102 2.15912 7.44466 1.88563 7.71815C1.61214 7.99164 1.4585 8.36257 1.4585 8.74935V13.8535C1.4585 14.2403 1.61214 14.6112 1.88563 14.8847C2.15912 15.1582 2.53006 15.3118 2.91683 15.3118H14.5835C14.9703 15.3118 15.3412 15.1582 15.6147 14.8847C15.8882 14.6112 16.0418 14.2403 16.0418 13.8535V6.56185C16.0418 6.17507 15.8882 5.80414 15.6147 5.53065C15.3412 5.25716 14.9703 5.10352 14.5835 5.10352H13.1252" stroke="#155DFC" stroke-width="1.45833" stroke-linecap="round" stroke-linejoin="round"/>
<path d="M4.375 15.3125V3.64583C4.375 3.25906 4.52865 2.88813 4.80214 2.61464C5.07563 2.34115 5.44656 2.1875 5.83333 2.1875H11.6667C12.0534 2.1875 12.4244 2.34115 12.6979 2.61464C12.9714 2.88813 13.125 3.25906 13.125 3.64583V15.3125" stroke="#155DFC" stroke-width="1.45833" stroke-linecap="round" stroke-linejoin="round"/>
</svg>
