<svg width="14" height="14" viewBox="0 0 14 14" fill="none" xmlns="http://www.w3.org/2000/svg">
<g clip-path="url(#clip0_3502_5935)">
<path d="M5.83301 7H8.16634" stroke="#4A5565" stroke-width="1.16667" stroke-linecap="round" stroke-linejoin="round"/>
<path d="M5.83301 4.66602H8.16634" stroke="#4A5565" stroke-width="1.16667" stroke-linecap="round" stroke-linejoin="round"/>
<path d="M8.16634 12.2507V10.5007C8.16634 10.1912 8.04342 9.89449 7.82463 9.67569C7.60584 9.4569 7.30909 9.33398 6.99967 9.33398C6.69026 9.33398 6.39351 9.4569 6.17472 9.67569C5.95592 9.89449 5.83301 10.1912 5.83301 10.5007V12.2507" stroke="#4A5565" stroke-width="1.16667" stroke-linecap="round" stroke-linejoin="round"/>
<path d="M3.50033 5.83398H2.33366C2.02424 5.83398 1.72749 5.9569 1.5087 6.17569C1.28991 6.39449 1.16699 6.69123 1.16699 7.00065V11.084C1.16699 11.3934 1.28991 11.6902 1.5087 11.9089C1.72749 12.1277 2.02424 12.2507 2.33366 12.2507H11.667C11.9764 12.2507 12.2732 12.1277 12.492 11.9089C12.7107 11.6902 12.8337 11.3934 12.8337 11.084V5.25065C12.8337 4.94123 12.7107 4.64449 12.492 4.42569C12.2732 4.2069 11.9764 4.08398 11.667 4.08398H10.5003" stroke="#4A5565" stroke-width="1.16667" stroke-linecap="round" stroke-linejoin="round"/>
<path d="M3.5 12.25V2.91667C3.5 2.60725 3.62292 2.3105 3.84171 2.09171C4.0605 1.87292 4.35725 1.75 4.66667 1.75H9.33333C9.64275 1.75 9.9395 1.87292 10.1583 2.09171C10.3771 2.3105 10.5 2.60725 10.5 2.91667V12.25" stroke="#4A5565" stroke-width="1.16667" stroke-linecap="round" stroke-linejoin="round"/>
</g>
<defs>
<clipPath id="clip0_3502_5935">
<rect width="14" height="14" fill="white"/>
</clipPath>
</defs>
</svg>
