<svg width="18" height="18" viewBox="0 0 18 18" fill="none" xmlns="http://www.w3.org/2000/svg">
<g clip-path="url(#clip0_3478_159)">
<path d="M7.29183 2.91602L5.8335 4.37435" stroke="#4A5565" stroke-width="1.45833" stroke-linecap="round" stroke-linejoin="round"/>
<path d="M12.396 13.8535V15.3118" stroke="#4A5565" stroke-width="1.45833" stroke-linecap="round" stroke-linejoin="round"/>
<path d="M1.4585 8.75H16.0418" stroke="#4A5565" stroke-width="1.45833" stroke-linecap="round" stroke-linejoin="round"/>
<path d="M5.104 13.8535V15.3118" stroke="#4A5565" stroke-width="1.45833" stroke-linecap="round" stroke-linejoin="round"/>
<path d="M6.56234 3.64658L5.55682 2.64106C5.34595 2.42922 5.07822 2.28302 4.786 2.22015C4.49378 2.15728 4.18961 2.18043 3.91028 2.28681C3.63095 2.39319 3.38843 2.57823 3.21206 2.81956C3.03569 3.06088 2.93303 3.34814 2.9165 3.64658V12.3966C2.9165 12.7834 3.07015 13.1543 3.34364 13.4278C3.61713 13.7013 3.98806 13.8549 4.37484 13.8549H13.1248C13.5116 13.8549 13.8825 13.7013 14.156 13.4278C14.4295 13.1543 14.5832 12.7834 14.5832 12.3966V8.75075" stroke="#4A5565" stroke-width="1.45833" stroke-linecap="round" stroke-linejoin="round"/>
</g>
<defs>
<clipPath id="clip0_3478_159">
<rect width="17.5" height="17.5" fill="white"/>
</clipPath>
</defs>
</svg>
