<svg width="18" height="18" viewBox="0 0 18 18" fill="none" xmlns="http://www.w3.org/2000/svg">
<path d="M10.086 12.0815C10.2366 12.1506 10.4062 12.1664 10.567 12.1263C10.7278 12.0861 10.8701 11.9924 10.9705 11.8605L11.2293 11.5215C11.3652 11.3404 11.5413 11.1934 11.7438 11.0921C11.9463 10.9909 12.1696 10.9382 12.396 10.9382H14.5835C14.9703 10.9382 15.3412 11.0918 15.6147 11.3653C15.8882 11.6388 16.0418 12.0097 16.0418 12.3965V14.584C16.0418 14.9708 15.8882 15.3417 15.6147 15.6152C15.3412 15.8887 14.9703 16.0423 14.5835 16.0423C11.1025 16.0423 7.76413 14.6595 5.30272 12.1981C2.8413 9.73668 1.4585 6.39828 1.4585 2.91732C1.4585 2.53054 1.61214 2.15961 1.88563 1.88612C2.15912 1.61263 2.53006 1.45898 2.91683 1.45898H5.10433C5.4911 1.45898 5.86204 1.61263 6.13553 1.88612C6.40902 2.15961 6.56266 2.53054 6.56266 2.91732V5.10482C6.56266 5.33122 6.50995 5.55451 6.4087 5.757C6.30745 5.9595 6.16045 6.13564 5.97933 6.27148L5.63808 6.52742C5.50422 6.62963 5.40986 6.77504 5.37105 6.93893C5.33224 7.10282 5.35136 7.27509 5.42516 7.42648C6.4217 9.45055 8.06068 11.0875 10.086 12.0815Z" stroke="#00A63E" stroke-width="1.45833" stroke-linecap="round" stroke-linejoin="round"/>
</svg>
