<svg width="14" height="14" viewBox="0 0 14 14" fill="none" xmlns="http://www.w3.org/2000/svg">
<path d="M8.06863 9.66402C8.1891 9.71934 8.32483 9.73198 8.45345 9.69986C8.58207 9.66773 8.6959 9.59275 8.77621 9.48727L8.98329 9.21602C9.09196 9.07112 9.23288 8.95352 9.39488 8.87252C9.55688 8.79152 9.73551 8.74935 9.91663 8.74935H11.6666C11.976 8.74935 12.2728 8.87227 12.4916 9.09106C12.7104 9.30985 12.8333 9.6066 12.8333 9.91602V11.666C12.8333 11.9754 12.7104 12.2722 12.4916 12.491C12.2728 12.7098 11.976 12.8327 11.6666 12.8327C8.88185 12.8327 6.21114 11.7264 4.24201 9.7573C2.27287 7.78817 1.16663 5.11746 1.16663 2.33268C1.16663 2.02326 1.28954 1.72652 1.50833 1.50772C1.72713 1.28893 2.02387 1.16602 2.33329 1.16602H4.08329C4.39271 1.16602 4.68946 1.28893 4.90825 1.50772C5.12704 1.72652 5.24996 2.02326 5.24996 2.33268V4.08268C5.24996 4.2638 5.20779 4.44243 5.12679 4.60443C5.04579 4.76643 4.92819 4.90734 4.78329 5.01602L4.51029 5.22077C4.4032 5.30254 4.32772 5.41886 4.29667 5.54997C4.26562 5.68108 4.28092 5.8189 4.33996 5.94002C5.13719 7.55927 6.44837 8.86881 8.06863 9.66402Z" stroke="#99A1AF" stroke-width="1.16667" stroke-linecap="round" stroke-linejoin="round"/>
</svg>
