<svg width="14" height="14" viewBox="0 0 14 14" fill="none" xmlns="http://www.w3.org/2000/svg">
<path d="M8.165 2.33398C8.37546 2.33398 8.58201 2.39091 8.76275 2.49874C8.94349 2.60657 9.0917 2.76128 9.19167 2.94648L9.47517 3.47148C9.57514 3.65669 9.72334 3.8114 9.90408 3.91923C10.0848 4.02706 10.2914 4.08399 10.5018 4.08398H11.6667C11.9762 4.08398 12.2729 4.2069 12.4917 4.42569C12.7105 4.64449 12.8334 4.94123 12.8334 5.25065V10.5007C12.8334 10.8101 12.7105 11.1068 12.4917 11.3256C12.2729 11.5444 11.9762 11.6673 11.6667 11.6673H2.33341C2.024 11.6673 1.72725 11.5444 1.50846 11.3256C1.28966 11.1068 1.16675 10.8101 1.16675 10.5007V5.25065C1.16675 4.94123 1.28966 4.64449 1.50846 4.42569C1.72725 4.2069 2.024 4.08398 2.33341 4.08398H3.49833C3.70858 4.084 3.91492 4.02719 4.09554 3.91958C4.27616 3.81197 4.42434 3.65755 4.52441 3.47265L4.80966 2.94532C4.90974 2.76042 5.05792 2.606 5.23854 2.49839C5.41916 2.39078 5.6255 2.33397 5.83575 2.33398H8.165Z" stroke="#1A1A1A" stroke-width="1.16667" stroke-linecap="round" stroke-linejoin="round"/>
<path d="M7 9.33398C7.9665 9.33398 8.75 8.55048 8.75 7.58398C8.75 6.61749 7.9665 5.83398 7 5.83398C6.0335 5.83398 5.25 6.61749 5.25 7.58398C5.25 8.55048 6.0335 9.33398 7 9.33398Z" stroke="#1A1A1A" stroke-width="1.16667" stroke-linecap="round" stroke-linejoin="round"/>
</svg>
