<svg width="42" height="42" viewBox="0 0 42 42" fill="none" xmlns="http://www.w3.org/2000/svg">
<path d="M24.4947 7C25.1261 6.99999 25.7458 7.17078 26.288 7.49426C26.8302 7.81775 27.2748 8.28189 27.5747 8.8375L28.4253 10.4125C28.7252 10.9681 29.1698 11.4323 29.712 11.7557C30.2542 12.0792 30.8739 12.25 31.5053 12.25H35C35.9283 12.25 36.8185 12.6187 37.4749 13.2751C38.1313 13.9315 38.5 14.8217 38.5 15.75V31.5C38.5 32.4283 38.1313 33.3185 37.4749 33.9749C36.8185 34.6313 35.9283 35 35 35H7C6.07174 35 5.1815 34.6313 4.52513 33.9749C3.86875 33.3185 3.5 32.4283 3.5 31.5V15.75C3.5 14.8217 3.86875 13.9315 4.52513 13.2751C5.1815 12.6187 6.07174 12.25 7 12.25H10.4948C11.1255 12.25 11.7445 12.0796 12.2864 11.7568C12.8282 11.434 13.2728 10.9707 13.573 10.416L14.4287 8.834C14.729 8.2793 15.1735 7.81604 15.7154 7.49321C16.2572 7.17038 16.8763 6.99997 17.507 7H24.4947Z" stroke="#99A1AF" stroke-width="3.5" stroke-linecap="round" stroke-linejoin="round"/>
<path d="M21 28C23.8995 28 26.25 25.6495 26.25 22.75C26.25 19.8505 23.8995 17.5 21 17.5C18.1005 17.5 15.75 19.8505 15.75 22.75C15.75 25.6495 18.1005 28 21 28Z" stroke="#99A1AF" stroke-width="3.5" stroke-linecap="round" stroke-linejoin="round"/>
</svg>
