<svg width="28" height="28" viewBox="0 0 28 28" fill="none" xmlns="http://www.w3.org/2000/svg">
<path d="M16.33 4.66602C16.7509 4.66601 17.164 4.77987 17.5255 4.99552C17.887 5.21118 18.1834 5.52061 18.3833 5.89102L18.9503 6.94102C19.1503 7.31142 19.4467 7.62085 19.8082 7.83651C20.1697 8.05216 20.5827 8.16602 21.0037 8.16602H23.3335C23.9523 8.16602 24.5458 8.41185 24.9834 8.84943C25.421 9.28702 25.6668 9.88051 25.6668 10.4993V20.9993C25.6668 21.6182 25.421 22.2117 24.9834 22.6493C24.5458 23.0868 23.9523 23.3327 23.3335 23.3327H4.66683C4.04799 23.3327 3.4545 23.0868 3.01691 22.6493C2.57933 22.2117 2.3335 21.6182 2.3335 20.9993V10.4993C2.3335 9.88051 2.57933 9.28702 3.01691 8.84943C3.4545 8.41185 4.04799 8.16602 4.66683 8.16602H6.99666C7.41715 8.16604 7.82984 8.05243 8.19107 7.83721C8.55231 7.62199 8.84868 7.31315 9.04883 6.94335L9.61933 5.88868C9.81948 5.51888 10.1158 5.21004 10.4771 4.99482C10.8383 4.7796 11.251 4.66599 11.6715 4.66602H16.33Z" stroke="#9810FA" stroke-width="2.33333" stroke-linecap="round" stroke-linejoin="round"/>
<path d="M14 18.666C15.933 18.666 17.5 17.099 17.5 15.166C17.5 13.233 15.933 11.666 14 11.666C12.067 11.666 10.5 13.233 10.5 15.166C10.5 17.099 12.067 18.666 14 18.666Z" stroke="#9810FA" stroke-width="2.33333" stroke-linecap="round" stroke-linejoin="round"/>
</svg>
