<svg width="18" height="18" viewBox="0 0 18 18" fill="none" xmlns="http://www.w3.org/2000/svg">
<path d="M13.8543 12.3952H15.3127C15.7502 12.3952 16.0418 12.1035 16.0418 11.666V9.47852C16.0418 8.82227 15.5314 8.23893 14.9481 8.0931C13.6356 7.72852 11.6668 7.29102 11.6668 7.29102C11.6668 7.29102 10.7189 6.27018 10.0627 5.61393C9.69808 5.32227 9.26058 5.10352 8.75016 5.10352H3.646C3.2085 5.10352 2.84391 5.39518 2.62516 5.75977L1.60433 7.87435C1.50777 8.15597 1.4585 8.45163 1.4585 8.74935V11.666C1.4585 12.1035 1.75016 12.3952 2.18766 12.3952H3.646" stroke="#00A63E" stroke-width="1.45833" stroke-linecap="round" stroke-linejoin="round"/>
<path d="M5.10433 13.8542C5.90974 13.8542 6.56266 13.2012 6.56266 12.3958C6.56266 11.5904 5.90974 10.9375 5.10433 10.9375C4.29891 10.9375 3.646 11.5904 3.646 12.3958C3.646 13.2012 4.29891 13.8542 5.10433 13.8542Z" stroke="#00A63E" stroke-width="1.45833" stroke-linecap="round" stroke-linejoin="round"/>
<path d="M6.5625 12.3965H10.9375" stroke="#00A63E" stroke-width="1.45833" stroke-linecap="round" stroke-linejoin="round"/>
<path d="M12.3958 13.8542C13.2012 13.8542 13.8542 13.2012 13.8542 12.3958C13.8542 11.5904 13.2012 10.9375 12.3958 10.9375C11.5904 10.9375 10.9375 11.5904 10.9375 12.3958C10.9375 13.2012 11.5904 13.8542 12.3958 13.8542Z" stroke="#00A63E" stroke-width="1.45833" stroke-linecap="round" stroke-linejoin="round"/>
</svg>
