<svg width="14" height="14" viewBox="0 0 14 14" fill="none" xmlns="http://www.w3.org/2000/svg">
<g clip-path="url(#clip0_3413_821)">
<path d="M1.74536 9.532C1.83113 9.74837 1.85023 9.98545 1.80019 10.2128L1.17894 12.1319C1.15892 12.2292 1.1641 12.3301 1.19398 12.4248C1.22385 12.5196 1.27744 12.6052 1.34966 12.6734C1.42188 12.7417 1.51034 12.7903 1.60664 12.8148C1.70294 12.8393 1.8039 12.8387 1.89994 12.8133L3.89086 12.2311C4.10536 12.1885 4.3275 12.2071 4.53194 12.2848C5.77758 12.8665 7.18865 12.9895 8.51619 12.6323C9.84373 12.275 11.0024 11.4603 11.7878 10.332C12.5733 9.20364 12.9349 7.83416 12.809 6.46516C12.6831 5.09616 12.0778 3.81561 11.0997 2.84945C10.1217 1.88329 8.83385 1.29361 7.46341 1.18444C6.09298 1.07528 4.72802 1.45364 3.60936 2.25278C2.49071 3.05193 1.69025 4.22049 1.34921 5.55229C1.00817 6.8841 1.14847 8.29356 1.74536 9.532Z" stroke="#155DFC" stroke-width="1.16667" stroke-linecap="round" stroke-linejoin="round"/>
</g>
<defs>
<clipPath id="clip0_3413_821">
<rect width="14" height="14" fill="white"/>
</clipPath>
</defs>
</svg>
