<svg width="18" height="18" viewBox="0 0 18 18" fill="none" xmlns="http://www.w3.org/2000/svg">
<path d="M2.1816 11.9165C2.28882 12.1869 2.31269 12.4833 2.25015 12.7674L1.47358 15.1664C1.44856 15.288 1.45503 15.4141 1.49238 15.5325C1.52973 15.651 1.59671 15.7579 1.68699 15.8432C1.77726 15.9285 1.88783 15.9894 2.00821 16.02C2.12859 16.0506 2.25478 16.0499 2.37483 16.018L4.86348 15.2903C5.13161 15.2371 5.40928 15.2604 5.66483 15.3574C7.22189 16.0845 8.98573 16.2384 10.6452 15.7918C12.3046 15.3452 13.7529 14.3268 14.7347 12.9164C15.7165 11.506 16.1686 9.79416 16.0112 8.08291C15.8538 6.37166 15.0971 4.77098 13.8746 3.56328C12.652 2.35558 11.0422 1.61848 9.32917 1.48202C7.61613 1.34556 5.90993 1.81852 4.51161 2.81745C3.1133 3.81637 2.11272 5.27707 1.68642 6.94183C1.26012 8.60659 1.4355 10.3684 2.1816 11.9165Z" stroke="#99A1AF" stroke-width="1.45833" stroke-linecap="round" stroke-linejoin="round"/>
</svg>
