<svg width="14" height="14" viewBox="0 0 14 14" fill="none" xmlns="http://www.w3.org/2000/svg">
<path d="M8.75016 1.16602H3.50016C3.19074 1.16602 2.894 1.28893 2.6752 1.50772C2.45641 1.72652 2.3335 2.02326 2.3335 2.33268V11.666C2.3335 11.9754 2.45641 12.2722 2.6752 12.491C2.894 12.7098 3.19074 12.8327 3.50016 12.8327H10.5002C10.8096 12.8327 11.1063 12.7098 11.3251 12.491C11.5439 12.2722 11.6668 11.9754 11.6668 11.666V4.08268L8.75016 1.16602Z" stroke="white" stroke-width="1.16667" stroke-linecap="round" stroke-linejoin="round"/>
<path d="M8.1665 1.16602V3.49935C8.1665 3.80877 8.28942 4.10551 8.50821 4.32431C8.72701 4.5431 9.02375 4.66602 9.33317 4.66602H11.6665" stroke="white" stroke-width="1.16667" stroke-linecap="round" stroke-linejoin="round"/>
<path d="M5.83317 5.25H4.6665" stroke="white" stroke-width="1.16667" stroke-linecap="round" stroke-linejoin="round"/>
<path d="M9.33317 7.58398H4.6665" stroke="white" stroke-width="1.16667" stroke-linecap="round" stroke-linejoin="round"/>
<path d="M9.33317 9.91602H4.6665" stroke="white" stroke-width="1.16667" stroke-linecap="round" stroke-linejoin="round"/>
</svg>
