<svg width="18" height="18" viewBox="0 0 18 18" fill="none" xmlns="http://www.w3.org/2000/svg">
<path d="M5.10417 11.8861C6.70833 11.8861 8.02083 10.5517 8.02083 8.93294C8.02083 8.08711 7.60521 7.28503 6.77396 6.6069C5.94271 5.92878 5.31563 4.92253 5.10417 3.86523C4.89271 4.92253 4.27292 5.93607 3.43438 6.6069C2.59583 7.27773 2.1875 8.0944 2.1875 8.93294C2.1875 10.5517 3.5 11.8861 5.10417 11.8861Z" stroke="#155DFC" stroke-width="1.45833" stroke-linecap="round" stroke-linejoin="round"/>
<path d="M9.15814 4.81159C9.65963 4.01033 10.0151 3.12652 10.2081 2.20117C10.5727 4.02409 11.6665 5.77409 13.1248 6.94076C14.5831 8.10742 15.3123 9.49284 15.3123 10.9512C15.3165 11.9591 15.0213 12.9456 14.4641 13.7855C13.907 14.6255 13.113 15.2811 12.1828 15.6692C11.2526 16.0574 10.2281 16.1606 9.2392 15.9659C8.25027 15.7711 7.34144 15.287 6.62793 14.5751" stroke="#155DFC" stroke-width="1.45833" stroke-linecap="round" stroke-linejoin="round"/>
</svg>
