<svg width="22" height="22" viewBox="0 0 22 22" fill="none" xmlns="http://www.w3.org/2000/svg">
<path d="M13.625 18.875V11.875C13.625 11.6429 13.5328 11.4204 13.3687 11.2563C13.2046 11.0922 12.9821 11 12.75 11H9.25C9.01794 11 8.79538 11.0922 8.63128 11.2563C8.46719 11.4204 8.375 11.6429 8.375 11.875V18.875" stroke="#009966" stroke-width="1.75" stroke-linecap="round" stroke-linejoin="round"/>
<path d="M3.125 9.24954C3.12494 8.99498 3.18042 8.74346 3.28756 8.51255C3.39471 8.28163 3.55095 8.07687 3.74538 7.91254L9.87037 2.66342C10.1862 2.39646 10.5864 2.25 11 2.25C11.4136 2.25 11.8138 2.39646 12.1296 2.66342L18.2546 7.91254C18.4491 8.07687 18.6053 8.28163 18.7124 8.51255C18.8196 8.74346 18.8751 8.99498 18.875 9.24954V17.1245C18.875 17.5887 18.6906 18.0338 18.3624 18.362C18.0342 18.6902 17.5891 18.8745 17.125 18.8745H4.875C4.41087 18.8745 3.96575 18.6902 3.63756 18.362C3.30937 18.0338 3.125 17.5887 3.125 17.1245V9.24954Z" stroke="#009966" stroke-width="1.75" stroke-linecap="round" stroke-linejoin="round"/>
</svg>
