<svg width="14" height="14" viewBox="0 0 14 14" fill="none" xmlns="http://www.w3.org/2000/svg">
<path d="M7 1.75H2.91667C2.60725 1.75 2.3105 1.87292 2.09171 2.09171C1.87292 2.3105 1.75 2.60725 1.75 2.91667V11.0833C1.75 11.3928 1.87292 11.6895 2.09171 11.9083C2.3105 12.1271 2.60725 12.25 2.91667 12.25H11.0833C11.3928 12.25 11.6895 12.1271 11.9083 11.9083C12.1271 11.6895 12.25 11.3928 12.25 11.0833V7" stroke="#9810FA" stroke-width="1.16667" stroke-linecap="round" stroke-linejoin="round"/>
<path d="M10.7187 1.53041C10.9508 1.29834 11.2655 1.16797 11.5937 1.16797C11.9219 1.16797 12.2367 1.29834 12.4687 1.53041C12.7008 1.76247 12.8312 2.07722 12.8312 2.40541C12.8312 2.73359 12.7008 3.04834 12.4687 3.28041L7.21114 8.53857C7.07263 8.67697 6.90151 8.77827 6.71356 8.83316L5.03764 9.32316C4.98744 9.3378 4.93424 9.33867 4.88359 9.3257C4.83294 9.31272 4.78671 9.28637 4.74973 9.2494C4.71276 9.21242 4.68641 9.16619 4.67343 9.11554C4.66046 9.06489 4.66133 9.01168 4.67597 8.96149L5.16597 7.28557C5.22111 7.09777 5.32262 6.92686 5.46114 6.78857L10.7187 1.53041Z" stroke="#9810FA" stroke-width="1.16667" stroke-linecap="round" stroke-linejoin="round"/>
</svg>
