<svg width="15" height="15" viewBox="0 0 15 15" fill="none" xmlns="http://www.w3.org/2000/svg">
<g clip-path="url(#clip0_2022_4042)">
<path d="M1.84021 9.65798C1.92598 9.87435 1.94507 10.1114 1.89504 10.3387L1.27379 12.2579C1.25377 12.3552 1.25895 12.456 1.28882 12.5508C1.3187 12.6456 1.37229 12.7311 1.44451 12.7994C1.51673 12.8676 1.60519 12.9163 1.70149 12.9408C1.79779 12.9652 1.89875 12.9647 1.99479 12.9392L3.98571 12.3571C4.20021 12.3145 4.42235 12.3331 4.62679 12.4107C5.87243 12.9924 7.2835 13.1155 8.61104 12.7582C9.93858 12.401 11.0973 11.5863 11.8827 10.4579C12.6681 9.32961 13.0298 7.96013 12.9039 6.59113C12.778 5.22213 12.1726 3.94159 11.1946 2.97543C10.2165 2.00927 8.9287 1.41959 7.55826 1.31042C6.18782 1.20125 4.82287 1.57962 3.70421 2.37876C2.58556 3.1779 1.7851 4.34646 1.44406 5.67827C1.10302 7.01007 1.24332 8.41954 1.84021 9.65798Z" stroke="white" stroke-width="1.16667" stroke-linecap="round" stroke-linejoin="round"/>
</g>
<defs>
<clipPath id="clip0_2022_4042">
<rect width="14" height="14" fill="white" transform="translate(0.09375 0.125)"/>
</clipPath>
</defs>
</svg>
