<svg width="21" height="21" viewBox="0 0 21 21" fill="none" xmlns="http://www.w3.org/2000/svg">
<path d="M1.8042 10.804C1.73128 10.6075 1.73128 10.3914 1.8042 10.195C2.51444 8.47283 3.72003 7.00037 5.26813 5.96425C6.81623 4.92812 8.63712 4.375 10.5 4.375C12.3628 4.375 14.1837 4.92812 15.7318 5.96425C17.2799 7.00037 18.4855 8.47283 19.1957 10.195C19.2686 10.3914 19.2686 10.6075 19.1957 10.804C18.4855 12.5261 17.2799 13.9986 15.7318 15.0347C14.1837 16.0708 12.3628 16.6239 10.5 16.6239C8.63712 16.6239 6.81623 16.0708 5.26813 15.0347C3.72003 13.9986 2.51444 12.5261 1.8042 10.804Z" stroke="white" stroke-width="1.75" stroke-linecap="round" stroke-linejoin="round"/>
<path d="M10.5 13.125C11.9497 13.125 13.125 11.9497 13.125 10.5C13.125 9.05025 11.9497 7.875 10.5 7.875C9.05025 7.875 7.875 9.05025 7.875 10.5C7.875 11.9497 9.05025 13.125 10.5 13.125Z" stroke="white" stroke-width="1.75" stroke-linecap="round" stroke-linejoin="round"/>
</svg>
