<svg width="14" height="14" viewBox="0 0 14 14" fill="none" xmlns="http://www.w3.org/2000/svg">
<path d="M1.16663 5.54198C1.16664 4.89284 1.36356 4.25898 1.73137 3.72411C2.09919 3.18924 2.62059 2.77853 3.22673 2.54621C3.83287 2.31389 4.49522 2.2709 5.1263 2.42292C5.75738 2.57493 6.32751 2.91481 6.76138 3.39764C6.79193 3.43032 6.82888 3.45637 6.86992 3.47418C6.91096 3.49198 6.95522 3.50117 6.99996 3.50117C7.0447 3.50117 7.08896 3.49198 7.13 3.47418C7.17104 3.45637 7.20798 3.43032 7.23854 3.39764C7.67105 2.91167 8.2413 2.56894 8.87341 2.41508C9.50552 2.26121 10.1695 2.30351 10.777 2.53634C11.3844 2.76917 11.9066 3.18149 12.2739 3.71842C12.6413 4.25535 12.8364 4.89142 12.8333 5.54198C12.8333 6.87781 11.9583 7.87531 11.0833 8.75031L7.87963 11.8496C7.77093 11.9744 7.63692 12.0747 7.48649 12.1437C7.33605 12.2128 7.17265 12.2491 7.00713 12.2501C6.84161 12.2512 6.67775 12.217 6.52646 12.1498C6.37517 12.0827 6.23989 11.9841 6.12963 11.8606L2.91663 8.75031C2.04163 7.87531 1.16663 6.88364 1.16663 5.54198Z" stroke="#4A5565" stroke-width="1.16667" stroke-linecap="round" stroke-linejoin="round"/>
</svg>
