<svg width="15" height="14" viewBox="0 0 15 14" fill="none" xmlns="http://www.w3.org/2000/svg">
<g clip-path="url(#clip0_2022_4109)">
<path d="M6.08442 11.6667C6.08437 11.7751 6.11453 11.8813 6.17151 11.9736C6.22849 12.0658 6.31004 12.1403 6.40701 12.1887L7.57368 12.7721C7.66263 12.8165 7.76147 12.8375 7.86082 12.833C7.96016 12.8285 8.0567 12.7987 8.14128 12.7464C8.22585 12.6941 8.29565 12.621 8.34404 12.5341C8.39243 12.4472 8.4178 12.3494 8.41776 12.25V8.16667C8.41789 7.87756 8.52536 7.59879 8.71934 7.38442L12.9328 2.72417C13.0083 2.64049 13.0579 2.53673 13.0757 2.42543C13.0935 2.31413 13.0787 2.20006 13.033 2.09701C12.9874 1.99396 12.9128 1.90635 12.8184 1.84476C12.724 1.78318 12.6138 1.75027 12.5011 1.75H2.00109C1.88828 1.75004 1.7779 1.78279 1.68332 1.84429C1.58874 1.90578 1.51403 1.99338 1.46822 2.09648C1.42241 2.19957 1.40748 2.31374 1.42524 2.42514C1.443 2.53655 1.49267 2.64042 1.56826 2.72417L5.78284 7.38442C5.97682 7.59879 6.08429 7.87756 6.08442 8.16667V11.6667Z" stroke="#0A0A0A" stroke-width="1.16667" stroke-linecap="round" stroke-linejoin="round"/>
</g>
<defs>
<clipPath id="clip0_2022_4109">
<rect width="14" height="14" fill="white" transform="translate(0.25)"/>
</clipPath>
</defs>
</svg>
