<svg width="14" height="14" viewBox="0 0 14 14" fill="none" xmlns="http://www.w3.org/2000/svg">
<g clip-path="url(#clip0_3455_587)">
<path d="M1.16675 5.54198C1.16676 4.89284 1.36368 4.25898 1.73149 3.72411C2.09931 3.18924 2.62072 2.77853 3.22685 2.54621C3.83299 2.31389 4.49534 2.2709 5.12642 2.42292C5.7575 2.57493 6.32763 2.91481 6.7615 3.39764C6.79206 3.43032 6.829 3.45637 6.87004 3.47418C6.91108 3.49198 6.95534 3.50117 7.00008 3.50117C7.04482 3.50117 7.08908 3.49198 7.13012 3.47418C7.17116 3.45637 7.20811 3.43032 7.23866 3.39764C7.67117 2.91167 8.24143 2.56894 8.87353 2.41508C9.50564 2.26121 10.1696 2.30351 10.7771 2.53634C11.3846 2.76917 11.9067 3.18149 12.2741 3.71842C12.6414 4.25535 12.8365 4.89142 12.8334 5.54198C12.8334 6.87781 11.9584 7.87531 11.0834 8.75031L7.87975 11.8496C7.77105 11.9744 7.63704 12.0747 7.48661 12.1437C7.33618 12.2128 7.17277 12.2491 7.00725 12.2501C6.84173 12.2512 6.67788 12.217 6.52658 12.1498C6.37529 12.0827 6.24001 11.9841 6.12975 11.8606L2.91675 8.75031C2.04175 7.87531 1.16675 6.88364 1.16675 5.54198Z" stroke="#4A5565" stroke-width="1.16667" stroke-linecap="round" stroke-linejoin="round"/>
</g>
<defs>
<clipPath id="clip0_3455_587">
<rect width="14" height="14" fill="white"/>
</clipPath>
</defs>
</svg>
