<svg width="14" height="14" viewBox="0 0 14 14" fill="none" xmlns="http://www.w3.org/2000/svg">
<g clip-path="url(#clip0_3455_1724)">
<path d="M1.1665 5.54198C1.16652 4.89284 1.36343 4.25898 1.73125 3.72411C2.09906 3.18924 2.62047 2.77853 3.22661 2.54621C3.83275 2.31389 4.4951 2.2709 5.12618 2.42292C5.75726 2.57493 6.32738 2.91481 6.76125 3.39764C6.79181 3.43032 6.82876 3.45637 6.8698 3.47418C6.91084 3.49198 6.9551 3.50117 6.99984 3.50117C7.04457 3.50117 7.08884 3.49198 7.12988 3.47418C7.17092 3.45637 7.20786 3.43032 7.23842 3.39764C7.67093 2.91167 8.24118 2.56894 8.87329 2.41508C9.5054 2.26121 10.1694 2.30351 10.7768 2.53634C11.3843 2.76917 11.9065 3.18149 12.2738 3.71842C12.6412 4.25535 12.8363 4.89142 12.8332 5.54198C12.8332 6.87781 11.9582 7.87531 11.0832 8.75031L7.8795 11.8496C7.77081 11.9744 7.6368 12.0747 7.48636 12.1437C7.33593 12.2128 7.17253 12.2491 7.00701 12.2501C6.84148 12.2512 6.67763 12.217 6.52634 12.1498C6.37504 12.0827 6.23977 11.9841 6.1295 11.8606L2.9165 8.75031C2.0415 7.87531 1.1665 6.88364 1.1665 5.54198Z" stroke="white" stroke-width="1.16667" stroke-linecap="round" stroke-linejoin="round"/>
</g>
<defs>
<clipPath id="clip0_3455_1724">
<rect width="14" height="14" fill="white"/>
</clipPath>
</defs>
</svg>
