<svg width="14" height="14" viewBox="0 0 14 14" fill="none" xmlns="http://www.w3.org/2000/svg">
<g clip-path="url(#clip0_3541_2976)">
<path d="M6.99996 12.8327C10.2216 12.8327 12.8333 10.221 12.8333 6.99935C12.8333 3.77769 10.2216 1.16602 6.99996 1.16602C3.7783 1.16602 1.16663 3.77769 1.16663 6.99935C1.16663 10.221 3.7783 12.8327 6.99996 12.8327Z" stroke="#4A5565" stroke-width="1.16667" stroke-linecap="round" stroke-linejoin="round"/>
<path d="M5.30249 5.24936C5.43963 4.8595 5.71033 4.53075 6.06663 4.32135C6.42293 4.11195 6.84185 4.0354 7.24918 4.10527C7.65651 4.17514 8.02597 4.38691 8.29212 4.70308C8.55827 5.01925 8.70394 5.41941 8.70332 5.83269C8.70332 6.99936 6.95332 7.58269 6.95332 7.58269" stroke="#4A5565" stroke-width="1.16667" stroke-linecap="round" stroke-linejoin="round"/>
<path d="M7 9.91602H7.00583" stroke="#4A5565" stroke-width="1.16667" stroke-linecap="round" stroke-linejoin="round"/>
</g>
<defs>
<clipPath id="clip0_3541_2976">
<rect width="14" height="14" fill="white"/>
</clipPath>
</defs>
</svg>
