<svg width="28" height="24" viewBox="0 0 28 24" fill="none" xmlns="http://www.w3.org/2000/svg">
<path d="M17.4219 21V13C17.4219 12.7348 17.2995 12.4804 17.0817 12.2929C16.8639 12.1054 16.5685 12 16.2604 12H11.6146C11.3065 12 11.0111 12.1054 10.7933 12.2929C10.5755 12.4804 10.4531 12.7348 10.4531 13V21" stroke="#155DFC" stroke-width="2" stroke-linecap="round" stroke-linejoin="round"/>
<path d="M3.48438 9.99948C3.48429 9.70855 3.55793 9.4211 3.70016 9.1572C3.84238 8.89329 4.04977 8.65928 4.30785 8.47148L12.4381 2.47248C12.8573 2.16739 13.3885 2 13.9375 2C14.4865 2 15.0177 2.16739 15.4369 2.47248L23.5672 8.47148C23.8252 8.65928 24.0326 8.89329 24.1748 9.1572C24.3171 9.4211 24.3907 9.70855 24.3906 9.99948V18.9995C24.3906 19.5299 24.1459 20.0386 23.7103 20.4137C23.2746 20.7888 22.6838 20.9995 22.0677 20.9995H5.80729C5.19122 20.9995 4.60037 20.7888 4.16474 20.4137C3.72911 20.0386 3.48438 19.5299 3.48438 18.9995V9.99948Z" stroke="#155DFC" stroke-width="2" stroke-linecap="round" stroke-linejoin="round"/>
</svg>
