<svg width="21" height="21" viewBox="0 0 21 21" fill="none" xmlns="http://www.w3.org/2000/svg">
<path d="M9.62501 17.5C8.08856 17.5047 6.60648 16.9317 5.47271 15.8947C4.33895 14.8578 3.63631 13.4326 3.50416 11.9018C3.372 10.3711 3.81999 8.84656 4.75927 7.63065C5.69854 6.41473 7.0605 5.59624 8.57501 5.3375C13.5625 4.375 14.875 3.92 16.625 1.75C17.5 3.5 18.375 5.4075 18.375 8.75C18.375 13.5625 14.1925 17.5 9.62501 17.5Z" stroke="white" stroke-width="1.75" stroke-linecap="round" stroke-linejoin="round"/>
<path d="M1.75 18.375C1.75 15.75 3.36875 13.685 6.195 13.125C8.3125 12.705 10.5 11.375 11.375 10.5" stroke="white" stroke-width="1.75" stroke-linecap="round" stroke-linejoin="round"/>
</svg>
