<svg width="14" height="14" viewBox="0 0 14 14" fill="none" xmlns="http://www.w3.org/2000/svg">
<path d="M11.6666 5.83268C11.6666 8.74527 8.4355 11.7786 7.3505 12.7154C7.24942 12.7914 7.12638 12.8325 6.99992 12.8325C6.87345 12.8325 6.75041 12.7914 6.64934 12.7154C5.56434 11.7786 2.33325 8.74527 2.33325 5.83268C2.33325 4.59501 2.82492 3.40802 3.70009 2.53285C4.57526 1.65768 5.76224 1.16602 6.99992 1.16602C8.2376 1.16602 9.42458 1.65768 10.2998 2.53285C11.1749 3.40802 11.6666 4.59501 11.6666 5.83268Z" stroke="#1A1A1A" stroke-width="1.16667" stroke-linecap="round" stroke-linejoin="round"/>
<path d="M7 7.58398C7.9665 7.58398 8.75 6.80048 8.75 5.83398C8.75 4.86749 7.9665 4.08398 7 4.08398C6.0335 4.08398 5.25 4.86749 5.25 5.83398C5.25 6.80048 6.0335 7.58398 7 7.58398Z" stroke="#1A1A1A" stroke-width="1.16667" stroke-linecap="round" stroke-linejoin="round"/>
</svg>
