<svg width="18" height="18" viewBox="0 0 18 18" fill="none" xmlns="http://www.w3.org/2000/svg">
<path d="M14.5832 7.29232C14.5832 10.933 10.5443 14.7247 9.18807 15.8958C9.06172 15.9908 8.90792 16.0421 8.74984 16.0421C8.59176 16.0421 8.43796 15.9908 8.31161 15.8958C6.95536 14.7247 2.9165 10.933 2.9165 7.29232C2.9165 5.74522 3.53109 4.26149 4.62505 3.16753C5.71901 2.07357 7.20274 1.45898 8.74984 1.45898C10.2969 1.45898 11.7807 2.07357 12.8746 3.16753C13.9686 4.26149 14.5832 5.74522 14.5832 7.29232Z" stroke="#6A7282" stroke-width="1.45833" stroke-linecap="round" stroke-linejoin="round"/>
<path d="M8.75 9.47852C9.95812 9.47852 10.9375 8.49914 10.9375 7.29102C10.9375 6.08289 9.95812 5.10352 8.75 5.10352C7.54188 5.10352 6.5625 6.08289 6.5625 7.29102C6.5625 8.49914 7.54188 9.47852 8.75 9.47852Z" stroke="#6A7282" stroke-width="1.45833" stroke-linecap="round" stroke-linejoin="round"/>
</svg>
