<svg width="25" height="25" viewBox="0 0 25 25" fill="none" xmlns="http://www.w3.org/2000/svg">
<path d="M2.82812 9.99955C2.82815 8.88675 3.16572 7.80014 3.79626 6.88322C4.4268 5.9663 5.32064 5.26221 6.35973 4.86395C7.39883 4.46569 8.53428 4.392 9.61614 4.6526C10.698 4.9132 11.6753 5.49583 12.4191 6.32355C12.4715 6.37957 12.5348 6.42422 12.6052 6.45475C12.6756 6.48528 12.7514 6.50104 12.8281 6.50104C12.9048 6.50104 12.9807 6.48528 13.051 6.45475C13.1214 6.42422 13.1847 6.37957 13.2371 6.32355C13.9786 5.49045 14.9561 4.90292 16.0398 4.63915C17.1234 4.37539 18.2616 4.4479 19.303 4.84704C20.3444 5.24617 21.2395 5.953 21.8692 6.87345C22.499 7.7939 22.8334 8.88431 22.8281 9.99955C22.8281 12.2896 21.3281 13.9996 19.8281 15.4996L14.3361 20.8126C14.1498 21.0266 13.9201 21.1985 13.6622 21.3169C13.4043 21.4352 13.1242 21.4974 12.8404 21.4992C12.5567 21.501 12.2758 21.4424 12.0164 21.3273C11.7571 21.2122 11.5252 21.0432 11.3361 20.8316L5.82812 15.4996C4.32812 13.9996 2.82812 12.2996 2.82812 9.99955Z" stroke="#6A7282" stroke-width="2" stroke-linecap="round" stroke-linejoin="round"/>
</svg>
