<svg width="15" height="14" viewBox="0 0 15 14" fill="none" xmlns="http://www.w3.org/2000/svg">
<path d="M6.23828 12.25C6.34068 12.4273 6.48796 12.5746 6.66531 12.677C6.84266 12.7794 7.04383 12.8333 7.24861 12.8333C7.4534 12.8333 7.65457 12.7794 7.83192 12.677C8.00927 12.5746 8.15655 12.4273 8.25895 12.25" stroke="#4A5565" stroke-width="1.16667" stroke-linecap="round" stroke-linejoin="round"/>
<path d="M2.15241 8.93952C2.0762 9.02304 2.02591 9.12691 2.00766 9.23848C1.9894 9.35006 2.00396 9.46454 2.04957 9.568C2.09518 9.67145 2.16987 9.75942 2.26456 9.82121C2.35924 9.88299 2.46984 9.91593 2.58291 9.91602H11.9162C12.0293 9.91606 12.1399 9.88325 12.2347 9.82158C12.3294 9.75991 12.4042 9.67204 12.4499 9.56865C12.4957 9.46526 12.5104 9.35081 12.4922 9.23923C12.4741 9.12764 12.424 9.02371 12.3479 8.9401C11.5721 8.14035 10.7496 7.29043 10.7496 4.66602C10.7496 3.73776 10.3808 2.84752 9.72445 2.19114C9.06807 1.53476 8.17783 1.16602 7.24957 1.16602C6.32132 1.16602 5.43108 1.53476 4.7747 2.19114C4.11832 2.84752 3.74957 3.73776 3.74957 4.66602C3.74957 7.29043 2.92649 8.14035 2.15241 8.93952Z" stroke="#4A5565" stroke-width="1.16667" stroke-linecap="round" stroke-linejoin="round"/>
</svg>
