<svg width="14" height="14" viewBox="0 0 14 14" fill="none" xmlns="http://www.w3.org/2000/svg">
<path d="M11.6667 4.66602H2.33333C2.01117 4.66602 1.75 4.92718 1.75 5.24935V6.41602C1.75 6.73818 2.01117 6.99935 2.33333 6.99935H11.6667C11.9888 6.99935 12.25 6.73818 12.25 6.41602V5.24935C12.25 4.92718 11.9888 4.66602 11.6667 4.66602Z" stroke="#4A5565" stroke-width="1.16667" stroke-linecap="round" stroke-linejoin="round"/>
<path d="M7 4.66602V12.2493" stroke="#4A5565" stroke-width="1.16667" stroke-linecap="round" stroke-linejoin="round"/>
<path d="M11.0833 7V11.0833C11.0833 11.3928 10.9604 11.6895 10.7416 11.9083C10.5228 12.1271 10.226 12.25 9.91663 12.25H4.08329C3.77387 12.25 3.47713 12.1271 3.25833 11.9083C3.03954 11.6895 2.91663 11.3928 2.91663 11.0833V7" stroke="#4A5565" stroke-width="1.16667" stroke-linecap="round" stroke-linejoin="round"/>
<path d="M4.37496 4.66692C3.98819 4.66692 3.61725 4.51328 3.34376 4.23979C3.07027 3.9663 2.91663 3.59536 2.91663 3.20859C2.91663 2.82181 3.07027 2.45088 3.34376 2.17739C3.61725 1.9039 3.98819 1.75026 4.37496 1.75026C4.93769 1.74045 5.48914 2.01349 5.95739 2.53377C6.42564 3.05404 6.78895 3.79741 6.99996 4.66692C7.21097 3.79741 7.57428 3.05404 8.04253 2.53377C8.51078 2.01349 9.06223 1.74045 9.62496 1.75026C10.0117 1.75026 10.3827 1.9039 10.6562 2.17739C10.9296 2.45088 11.0833 2.82181 11.0833 3.20859C11.0833 3.59536 10.9296 3.9663 10.6562 4.23979C10.3827 4.51328 10.0117 4.66692 9.62496 4.66692" stroke="#4A5565" stroke-width="1.16667" stroke-linecap="round" stroke-linejoin="round"/>
</svg>
