<svg width="28" height="28" viewBox="0 0 28 28" fill="none" xmlns="http://www.w3.org/2000/svg">
<path d="M4.98275 21.4043C4.98275 21.4043 7.58325 18.084 13.9999 18.084C20.4166 18.084 23.0183 21.4043 23.0183 21.4043M13.9999 2.33398C7.55642 2.33398 2.33325 7.55715 2.33325 14.0007C2.33325 20.4442 7.55642 25.6673 13.9999 25.6673C20.4434 25.6673 25.6666 20.4442 25.6666 14.0007C25.6666 7.55715 20.4434 2.33398 13.9999 2.33398ZM13.9999 14.0007C14.9282 14.0007 15.8184 13.6319 16.4748 12.9755C17.1312 12.3191 17.4999 11.4289 17.4999 10.5007C17.4999 9.57239 17.1312 8.68216 16.4748 8.02578C15.8184 7.3694 14.9282 7.00065 13.9999 7.00065C13.0717 7.00065 12.1814 7.3694 11.525 8.02578C10.8687 8.68216 10.4999 9.57239 10.4999 10.5007C10.4999 11.4289 10.8687 12.3191 11.525 12.9755C12.1814 13.6319 13.0717 14.0007 13.9999 14.0007Z" stroke="#155DFC" stroke-width="1.5" stroke-linecap="round" stroke-linejoin="round"/>
</svg>
