<svg width="14" height="14" viewBox="0 0 14 14" fill="none" xmlns="http://www.w3.org/2000/svg">
<path d="M4.08287 11.0827H2.80829C2.62429 11.0832 2.44327 11.0362 2.28281 10.9461C2.12234 10.8561 1.98787 10.7261 1.89246 10.5688C1.80082 10.4107 1.75237 10.2314 1.75196 10.0487C1.75155 9.86608 1.7992 9.68652 1.89012 9.5281L4.19721 5.54102" stroke="#009966" stroke-width="1.16667" stroke-linecap="round" stroke-linejoin="round"/>
<path d="M6.41699 11.0842H11.2021C11.3852 11.0828 11.5649 11.0343 11.7238 10.9434C11.8828 10.8525 12.0157 10.7222 12.1097 10.5651C12.2001 10.4075 12.2477 10.229 12.2477 10.0473C12.2477 9.8657 12.2001 9.68721 12.1097 9.52963L11.3946 8.29297" stroke="#009966" stroke-width="1.16667" stroke-linecap="round" stroke-linejoin="round"/>
<path d="M8.16699 9.33398L6.41699 11.084L8.16699 12.834" stroke="#009966" stroke-width="1.16667" stroke-linecap="round" stroke-linejoin="round"/>
<path d="M4.83784 7.93035L4.19793 5.54102L1.80859 6.18152" stroke="#009966" stroke-width="1.16667" stroke-linecap="round" stroke-linejoin="round"/>
<path d="M5.4502 3.38975L6.08778 2.28609C6.17933 2.12648 6.31058 1.99326 6.4688 1.89933C6.62702 1.8054 6.80682 1.75396 6.99078 1.75C7.17333 1.74966 7.35275 1.79735 7.51104 1.88827C7.66934 1.97919 7.80093 2.11015 7.89261 2.268L10.1927 6.25975" stroke="#009966" stroke-width="1.16667" stroke-linecap="round" stroke-linejoin="round"/>
<path d="M7.80371 5.61993L10.193 6.26043L10.833 3.87109" stroke="#009966" stroke-width="1.16667" stroke-linecap="round" stroke-linejoin="round"/>
</svg>
