<svg width="14" height="14" viewBox="0 0 14 14" fill="none" xmlns="http://www.w3.org/2000/svg">
<g clip-path="url(#clip0_3502_5944)">
<path d="M12.4254 8.92537C12.5559 9.05544 12.6594 9.20999 12.7301 9.38016C12.8008 9.55033 12.8371 9.73278 12.8371 9.91704C12.8371 10.1013 12.8008 10.2837 12.7301 10.4539C12.6594 10.6241 12.5559 10.7786 12.4254 10.9087L10.9087 12.4254C10.7786 12.5559 10.6241 12.6594 10.4539 12.7301C10.2837 12.8008 10.1013 12.8371 9.91704 12.8371C9.73278 12.8371 9.55033 12.8008 9.38016 12.7301C9.20999 12.6594 9.05544 12.5559 8.92537 12.4254L1.57537 5.07537C1.3132 4.81193 1.16602 4.45538 1.16602 4.08371C1.16602 3.71203 1.3132 3.35549 1.57537 3.09204L3.09204 1.57537C3.35549 1.3132 3.71203 1.16602 4.08371 1.16602C4.45538 1.16602 4.81193 1.3132 5.07537 1.57537L12.4254 8.92537Z" stroke="#4A5565" stroke-width="1.16667" stroke-linecap="round" stroke-linejoin="round"/>
<path d="M8.45801 7.29167L9.62467 6.125" stroke="#4A5565" stroke-width="1.16667" stroke-linecap="round" stroke-linejoin="round"/>
<path d="M6.70801 5.54167L7.87467 4.375" stroke="#4A5565" stroke-width="1.16667" stroke-linecap="round" stroke-linejoin="round"/>
<path d="M4.95801 3.79167L6.12467 2.625" stroke="#4A5565" stroke-width="1.16667" stroke-linecap="round" stroke-linejoin="round"/>
<path d="M10.208 9.04167L11.3747 7.875" stroke="#4A5565" stroke-width="1.16667" stroke-linecap="round" stroke-linejoin="round"/>
</g>
<defs>
<clipPath id="clip0_3502_5944">
<rect width="14" height="14" fill="white"/>
</clipPath>
</defs>
</svg>
