<svg width="15" height="15" viewBox="0 0 15 15" fill="none" xmlns="http://www.w3.org/2000/svg">
<g clip-path="url(#clip0_2022_3599)">
<path d="M9.24609 12.5V7.83333C9.24609 7.67862 9.18464 7.53025 9.07524 7.42085C8.96584 7.31146 8.81747 7.25 8.66276 7.25H6.32943C6.17472 7.25 6.02634 7.31146 5.91695 7.42085C5.80755 7.53025 5.74609 7.67862 5.74609 7.83333V12.5" stroke="#6A7282" stroke-width="1.16667" stroke-linecap="round" stroke-linejoin="round"/>
<path d="M2.24609 6.08238C2.24605 5.91267 2.28304 5.74499 2.35447 5.59105C2.4259 5.4371 2.53006 5.30059 2.65968 5.19105L6.74301 1.69163C6.95359 1.51366 7.22039 1.41602 7.49609 1.41602C7.7718 1.41602 8.0386 1.51366 8.24918 1.69163L12.3325 5.19105C12.4621 5.30059 12.5663 5.4371 12.6377 5.59105C12.7091 5.74499 12.7461 5.91267 12.7461 6.08238V11.3324C12.7461 11.6418 12.6232 11.9385 12.4044 12.1573C12.1856 12.3761 11.8888 12.499 11.5794 12.499H3.41276C3.10334 12.499 2.80659 12.3761 2.5878 12.1573C2.36901 11.9385 2.24609 11.6418 2.24609 11.3324V6.08238Z" stroke="#6A7282" stroke-width="1.16667" stroke-linecap="round" stroke-linejoin="round"/>
</g>
<defs>
<clipPath id="clip0_2022_3599">
<rect width="14" height="14" fill="white" transform="translate(0.496094 0.25)"/>
</clipPath>
</defs>
</svg>
