<svg width="14" height="14" viewBox="0 0 14 14" fill="none" xmlns="http://www.w3.org/2000/svg">
<g clip-path="url(#clip0_3541_3012)">
<path d="M5.64147 2.41357C5.67361 2.07543 5.83067 1.76143 6.08195 1.5329C6.33323 1.30437 6.66069 1.17773 7.00035 1.17773C7.34001 1.17773 7.66746 1.30437 7.91875 1.5329C8.17003 1.76143 8.32708 2.07543 8.35922 2.41357C8.37854 2.632 8.4502 2.84256 8.56813 3.02743C8.68607 3.2123 8.84681 3.36604 9.03674 3.47563C9.22668 3.58522 9.44022 3.64744 9.6593 3.65701C9.87837 3.66659 10.0965 3.62325 10.2953 3.53065C10.604 3.39052 10.9537 3.37025 11.2765 3.47377C11.5992 3.57729 11.872 3.79721 12.0415 4.09071C12.2111 4.38422 12.2654 4.73032 12.1938 5.06165C12.1223 5.39298 11.93 5.68584 11.6545 5.88324C11.475 6.00915 11.3285 6.17642 11.2274 6.37092C11.1263 6.56541 11.0735 6.7814 11.0735 7.00061C11.0735 7.21982 11.1263 7.43581 11.2274 7.6303C11.3285 7.8248 11.475 7.99208 11.6545 8.11799C11.93 8.31538 12.1223 8.60824 12.1938 8.93957C12.2654 9.2709 12.2111 9.617 12.0415 9.91051C11.872 10.204 11.5992 10.4239 11.2765 10.5275C10.9537 10.631 10.604 10.6107 10.2953 10.4706C10.0965 10.378 9.87837 10.3346 9.6593 10.3442C9.44022 10.3538 9.22668 10.416 9.03674 10.5256C8.84681 10.6352 8.68607 10.7889 8.56813 10.9738C8.4502 11.1587 8.37854 11.3692 8.35922 11.5877C8.32708 11.9258 8.17003 12.2398 7.91875 12.4683C7.66746 12.6969 7.34001 12.8235 7.00035 12.8235C6.66069 12.8235 6.33323 12.6969 6.08195 12.4683C5.83067 12.2398 5.67361 11.9258 5.64147 11.5877C5.62219 11.3691 5.55053 11.1585 5.43256 10.9736C5.31459 10.7886 5.15379 10.6348 4.96377 10.5252C4.77376 10.4156 4.56013 10.3534 4.34098 10.3439C4.12182 10.3344 3.90361 10.3779 3.70481 10.4706C3.39616 10.6107 3.04641 10.631 2.72364 10.5275C2.40087 10.4239 2.12816 10.204 1.95859 9.91051C1.78902 9.617 1.73472 9.2709 1.80627 8.93957C1.87781 8.60824 2.07007 8.31538 2.34564 8.11799C2.52508 7.99208 2.67156 7.8248 2.77269 7.6303C2.87382 7.43581 2.92661 7.21982 2.92661 7.00061C2.92661 6.7814 2.87382 6.56541 2.77269 6.37092C2.67156 6.17642 2.52508 6.00915 2.34564 5.88324C2.07046 5.68575 1.87853 5.393 1.80716 5.06189C1.73579 4.73078 1.79008 4.38497 1.95946 4.09165C2.12885 3.79834 2.40124 3.57847 2.72369 3.47479C3.04615 3.37111 3.39563 3.39102 3.70422 3.53065C3.903 3.62325 4.12116 3.66659 4.34023 3.65701C4.55931 3.64744 4.77285 3.58522 4.96279 3.47563C5.15272 3.36604 5.31346 3.2123 5.43139 3.02743C5.54933 2.84256 5.62099 2.632 5.64031 2.41357" stroke="#4A5565" stroke-width="1.16667" stroke-linecap="round" stroke-linejoin="round"/>
<path d="M7 8.75C7.9665 8.75 8.75 7.9665 8.75 7C8.75 6.0335 7.9665 5.25 7 5.25C6.0335 5.25 5.25 6.0335 5.25 7C5.25 7.9665 6.0335 8.75 7 8.75Z" stroke="#4A5565" stroke-width="1.16667" stroke-linecap="round" stroke-linejoin="round"/>
</g>
<defs>
<clipPath id="clip0_3541_3012">
<rect width="14" height="14" fill="white"/>
</clipPath>
</defs>
</svg>
