<svg width="35" height="35" viewBox="0 0 35 35" fill="none" xmlns="http://www.w3.org/2000/svg">
<path d="M21 15.166C21.9665 15.166 22.75 14.3825 22.75 13.416C22.75 12.4495 21.9665 11.666 21 11.666C20.0335 11.666 19.25 12.4495 19.25 13.416C19.25 14.3825 20.0335 15.166 21 15.166Z" stroke="#1A1A1A" stroke-width="1.16667" stroke-linecap="round" stroke-linejoin="round"/>
<path d="M14 19.25C14.9665 19.25 15.75 18.4665 15.75 17.5C15.75 16.5335 14.9665 15.75 14 15.75C13.0335 15.75 12.25 16.5335 12.25 17.5C12.25 18.4665 13.0335 19.25 14 19.25Z" stroke="#1A1A1A" stroke-width="1.16667" stroke-linecap="round" stroke-linejoin="round"/>
<path d="M21 23.334C21.9665 23.334 22.75 22.5505 22.75 21.584C22.75 20.6175 21.9665 19.834 21 19.834C20.0335 19.834 19.25 20.6175 19.25 21.584C19.25 22.5505 20.0335 23.334 21 23.334Z" stroke="#1A1A1A" stroke-width="1.16667" stroke-linecap="round" stroke-linejoin="round"/>
<path d="M15.5107 18.3809L19.4949 20.7025" stroke="#1A1A1A" stroke-width="1.16667" stroke-linecap="round" stroke-linejoin="round"/>
<path d="M19.4891 14.2969L15.5107 16.6185" stroke="#1A1A1A" stroke-width="1.16667" stroke-linecap="round" stroke-linejoin="round"/>
</svg>
