<svg width="14" height="14" viewBox="0 0 14 14" fill="none" xmlns="http://www.w3.org/2000/svg">
<path d="M8.47955 12.651C8.50171 12.7062 8.54023 12.7533 8.58995 12.786C8.63968 12.8187 8.69821 12.8355 8.7577 12.8339C8.81719 12.8324 8.8748 12.8127 8.92278 12.7775C8.97076 12.7423 9.00682 12.6933 9.02613 12.637L12.8178 1.55364C12.8365 1.50195 12.84 1.44602 12.8281 1.39238C12.8161 1.33874 12.7891 1.28962 12.7503 1.25076C12.7114 1.2119 12.6623 1.18491 12.6086 1.17295C12.555 1.16099 12.4991 1.16455 12.4474 1.18322L1.36405 4.97489C1.30775 4.99419 1.25871 5.03026 1.2235 5.07824C1.1883 5.12622 1.16861 5.18382 1.16709 5.24332C1.16556 5.30281 1.18228 5.36134 1.21498 5.41106C1.24768 5.46078 1.29481 5.49931 1.35005 5.52147L5.97588 7.37647C6.12211 7.43502 6.25498 7.52257 6.36646 7.63386C6.47794 7.74514 6.56573 7.87784 6.62455 8.02397L8.47955 12.651Z" stroke="white" stroke-width="1.16667" stroke-linecap="round" stroke-linejoin="round"/>
<path d="M12.7484 1.25195L6.3667 7.63304" stroke="white" stroke-width="1.16667" stroke-linecap="round" stroke-linejoin="round"/>
</svg>
