<svg width="21" height="21" viewBox="0 0 21 21" fill="none" xmlns="http://www.w3.org/2000/svg">
<path d="M10.0844 2.00803C10.1227 1.93056 10.1819 1.86535 10.2554 1.81975C10.3288 1.77416 10.4135 1.75 10.5 1.75C10.5864 1.75 10.6712 1.77416 10.7446 1.81975C10.818 1.86535 10.8773 1.93056 10.9156 2.00803L12.9369 6.10216C13.07 6.37163 13.2666 6.60476 13.5097 6.78155C13.7527 6.95834 14.0351 7.07351 14.3325 7.11716L18.8527 7.77866C18.9384 7.79107 19.0189 7.82719 19.085 7.88296C19.1512 7.93872 19.2005 8.01189 19.2273 8.09419C19.254 8.17649 19.2572 8.26464 19.2365 8.34866C19.2158 8.43269 19.172 8.50924 19.11 8.56966L15.841 11.7529C15.6254 11.963 15.4641 12.2223 15.371 12.5086C15.2778 12.7948 15.2557 13.0994 15.3064 13.3962L16.0781 17.8937C16.0932 17.9793 16.084 18.0674 16.0514 18.148C16.0189 18.2286 15.9643 18.2984 15.894 18.3495C15.8236 18.4006 15.7403 18.4309 15.6536 18.4369C15.5669 18.443 15.4802 18.4245 15.4035 18.3837L11.3627 16.2592C11.0965 16.1194 10.8003 16.0463 10.4996 16.0463C10.1988 16.0463 9.90261 16.1194 9.63636 16.2592L5.59649 18.3837C5.51978 18.4243 5.43321 18.4425 5.34663 18.4364C5.26005 18.4302 5.17694 18.3999 5.10675 18.3488C5.03655 18.2978 4.98209 18.2281 4.94956 18.1476C4.91703 18.0671 4.90774 17.9791 4.92274 17.8937L5.69361 13.397C5.74453 13.1002 5.72247 12.7954 5.62933 12.5089C5.53619 12.2225 5.37477 11.963 5.15899 11.7529L1.88999 8.57053C1.82751 8.51019 1.78323 8.4335 1.7622 8.34922C1.74118 8.26494 1.74425 8.17645 1.77106 8.09382C1.79787 8.0112 1.84735 7.93777 1.91385 7.88189C1.98036 7.82602 2.06123 7.78994 2.14724 7.77778L6.66661 7.11716C6.96434 7.07384 7.24708 6.95883 7.4905 6.78202C7.73392 6.60521 7.93073 6.37189 8.06399 6.10216L10.0844 2.00803Z" stroke="#00A63E" stroke-width="1.75" stroke-linecap="round" stroke-linejoin="round"/>
</svg>
