<svg width="11" height="11" viewBox="0 0 11 11" fill="none" xmlns="http://www.w3.org/2000/svg">
<g clip-path="url(#clip0_3455_590)">
<path d="M5.04224 1.00402C5.06142 0.96528 5.09103 0.932674 5.12775 0.909877C5.16447 0.88708 5.20683 0.875 5.25005 0.875C5.29328 0.875 5.33564 0.88708 5.37236 0.909877C5.40908 0.932674 5.43869 0.96528 5.45787 1.00402L6.46849 3.05108C6.53507 3.18581 6.63335 3.30238 6.75489 3.39078C6.87643 3.47917 7.01761 3.53675 7.1663 3.55858L9.42643 3.88933C9.46925 3.89553 9.50949 3.9136 9.54258 3.94148C9.57568 3.96936 9.60031 4.00594 9.61369 4.04709C9.62707 4.08824 9.62867 4.13232 9.61831 4.17433C9.60795 4.21634 9.58604 4.25462 9.55506 4.28483L7.92056 5.87645C7.81276 5.9815 7.73211 6.11116 7.68555 6.25429C7.63898 6.39742 7.62789 6.54972 7.65324 6.69808L8.03912 8.94683C8.04668 8.98963 8.04205 9.0337 8.02577 9.074C8.00949 9.11431 7.98221 9.14922 7.94704 9.17476C7.91187 9.20031 7.87023 9.21545 7.82687 9.21847C7.78351 9.22149 7.74017 9.21226 7.70181 9.19183L5.68143 8.12958C5.54831 8.05968 5.4002 8.02316 5.24984 8.02316C5.09948 8.02316 4.95137 8.05968 4.81824 8.12958L2.7983 9.19183C2.75995 9.21213 2.71667 9.22127 2.67338 9.21819C2.63009 9.21511 2.58853 9.19995 2.55343 9.17442C2.51834 9.1489 2.49111 9.11404 2.47484 9.0738C2.45858 9.03357 2.45393 8.98957 2.46143 8.94683L2.84687 6.69852C2.87233 6.55009 2.8613 6.39769 2.81473 6.25447C2.76816 6.11126 2.68745 5.98152 2.57955 5.87645L0.945055 4.28527C0.913815 4.25509 0.891677 4.21675 0.881164 4.17461C0.87065 4.13247 0.872184 4.08822 0.885589 4.04691C0.898995 4.0056 0.923734 3.96888 0.956989 3.94095C0.990243 3.91301 1.03068 3.89497 1.07368 3.88889L3.33337 3.55858C3.48223 3.53692 3.6236 3.47942 3.74531 3.39101C3.86702 3.3026 3.96543 3.18595 4.03205 3.05108L5.04224 1.00402Z" fill="#FF8904" stroke="#FF8904" stroke-width="0.875" stroke-linecap="round" stroke-linejoin="round"/>
</g>
<defs>
<clipPath id="clip0_3455_590">
<rect width="10.5" height="10.5" fill="white"/>
</clipPath>
</defs>
</svg>
