<svg width="14" height="14" viewBox="0 0 14 14" fill="none" xmlns="http://www.w3.org/2000/svg">
<path d="M9.91713 8.16667L11.6671 10.0917C11.7471 10.1732 11.8013 10.2764 11.8232 10.3885C11.845 10.5006 11.8335 10.6166 11.79 10.7222C11.7465 10.8277 11.673 10.9182 11.5786 10.9825C11.4842 11.0467 11.373 11.0817 11.2588 11.0833H2.74213C2.62796 11.0817 2.51677 11.0467 2.42234 10.9825C2.32791 10.9182 2.25441 10.8277 2.21093 10.7222C2.16745 10.6166 2.15592 10.5006 2.17776 10.3885C2.1996 10.2764 2.25386 10.1732 2.3338 10.0917L4.0838 8.16667H3.9088C3.79463 8.16506 3.68343 8.12999 3.58901 8.06578C3.49458 8.00158 3.42107 7.91108 3.3776 7.80549C3.33412 7.69991 3.32259 7.58389 3.34443 7.47181C3.36627 7.35974 3.42052 7.25653 3.50047 7.175L5.25047 5.25H5.1338C5.01465 5.26075 4.89508 5.2346 4.79129 5.17511C4.6875 5.11562 4.60452 5.02565 4.55358 4.91741C4.50264 4.80916 4.48621 4.68787 4.50653 4.56998C4.52684 4.45209 4.58291 4.34329 4.66713 4.25833L7.00047 1.75L9.3338 4.25833C9.41802 4.34329 9.47409 4.45209 9.4944 4.56998C9.51472 4.68787 9.49829 4.80916 9.44735 4.91741C9.39641 5.02565 9.31343 5.11562 9.20964 5.17511C9.10585 5.2346 8.98628 5.26075 8.86713 5.25H8.75047L10.5005 7.175C10.5804 7.25653 10.6347 7.35974 10.6565 7.47181C10.6783 7.58389 10.6668 7.69991 10.6233 7.80549C10.5799 7.91108 10.5064 8.00158 10.4119 8.06578C10.3175 8.12999 10.2063 8.16506 10.0921 8.16667H9.91713Z" stroke="#009966" stroke-width="1.16667" stroke-linecap="round" stroke-linejoin="round"/>
<path d="M7 12.834V11.084" stroke="#009966" stroke-width="1.16667" stroke-linecap="round" stroke-linejoin="round"/>
</svg>
