<svg width="25" height="25" viewBox="0 0 25 25" fill="none" xmlns="http://www.w3.org/2000/svg">
<path d="M20.6654 13.5206C20.6654 18.6248 17.0924 21.1769 12.8458 22.6571C12.6234 22.7325 12.3819 22.7289 12.1618 22.6469C7.90495 21.1769 4.33203 18.6248 4.33203 13.5206V6.37481C4.33203 6.10407 4.43958 5.84441 4.63103 5.65297C4.82247 5.46153 5.08212 5.35397 5.35286 5.35397C7.39453 5.35397 9.94661 4.12897 11.7229 2.57731C11.9391 2.39254 12.2142 2.29102 12.4987 2.29102C12.7831 2.29102 13.0583 2.39254 13.2745 2.57731C15.061 4.13918 17.6029 5.35397 19.6445 5.35397C19.9153 5.35397 20.1749 5.46153 20.3664 5.65297C20.5578 5.84441 20.6654 6.10407 20.6654 6.37481V13.5206Z" stroke="white" stroke-width="2.04167" stroke-linecap="round" stroke-linejoin="round"/>
</svg>
