<svg width="18" height="18" viewBox="0 0 18 18" fill="none" xmlns="http://www.w3.org/2000/svg">
<g clip-path="url(#clip0_3455_1689)">
<path d="M12.8303 9.30972C13.1039 9.58327 13.4749 9.73695 13.8617 9.73695C14.2486 9.73695 14.6196 9.58327 14.8931 9.30972C15.1667 9.03618 15.3204 8.66517 15.3204 8.27832C15.3204 7.89147 15.1667 7.52046 14.8931 7.24691L13.604 5.95847C13.8775 6.23192 14.2485 6.38551 14.6353 6.38544C14.8268 6.38541 15.0164 6.34765 15.1934 6.27433C15.3703 6.20101 15.531 6.09356 15.6664 5.95811C15.8018 5.82266 15.9092 5.66188 15.9825 5.48492C16.0557 5.30797 16.0934 5.11833 16.0934 4.92681C16.0934 4.73529 16.0556 4.54566 15.9823 4.36874C15.909 4.19181 15.8015 4.03106 15.6661 3.89566L13.604 1.83358C13.3305 1.56003 12.9596 1.40632 12.5728 1.40625C12.186 1.40618 11.8151 1.55977 11.5415 1.83321C11.268 2.10666 11.1143 2.47758 11.1142 2.86436C11.1141 3.25115 11.2677 3.62212 11.5412 3.89566L10.2527 2.6065C10.1173 2.47105 9.95649 2.36361 9.77952 2.2903C9.60255 2.217 9.41287 2.17927 9.22132 2.17927C9.02977 2.17927 8.8401 2.217 8.66313 2.2903C8.48616 2.36361 8.32536 2.47105 8.18992 2.6065C8.05447 2.74194 7.94703 2.90274 7.87373 3.07971C7.80042 3.25668 7.7627 3.44635 7.7627 3.6379C7.7627 3.82945 7.80042 4.01913 7.87373 4.1961C7.94703 4.37306 8.05447 4.53386 8.18992 4.66931L12.8303 9.30972Z" stroke="#00A63E" stroke-width="1.45833" stroke-linecap="round" stroke-linejoin="round"/>
<path d="M1.82275 15.6771L2.84359 14.6562" stroke="#00A63E" stroke-width="1.45833" stroke-linecap="round" stroke-linejoin="round"/>
<path d="M14.6562 2.8431L15.6771 1.82227" stroke="#00A63E" stroke-width="1.45833" stroke-linecap="round" stroke-linejoin="round"/>
<path d="M3.89615 15.667C4.1696 15.9406 4.54052 16.0943 4.9273 16.0944C5.11882 16.0944 5.30846 16.0567 5.48541 15.9835C5.66236 15.9102 5.82315 15.8028 5.9586 15.6674C6.09404 15.532 6.2015 15.3713 6.27482 15.1943C6.34814 15.0174 6.38589 14.8278 6.38593 14.6363C6.38596 14.4447 6.34827 14.2551 6.27501 14.0781C6.20176 13.9012 6.09436 13.7404 5.95896 13.605L7.2474 14.8941C7.52095 15.1677 7.89195 15.3213 8.27881 15.3213C8.66566 15.3213 9.03667 15.1677 9.31021 14.8941C9.58376 14.6206 9.73744 14.2496 9.73744 13.8627C9.73744 13.4759 9.58376 13.1049 9.31021 12.8313L4.6698 8.19089C4.53435 8.05545 4.37355 7.94801 4.19658 7.8747C4.01961 7.8014 3.82994 7.76367 3.63839 7.76367C3.44684 7.76367 3.25717 7.8014 3.0802 7.8747C2.90323 7.94801 2.74243 8.05545 2.60698 8.19089C2.47154 8.32634 2.3641 8.48714 2.29079 8.66411C2.21749 8.84108 2.17976 9.03075 2.17976 9.2223C2.17976 9.41385 2.21749 9.60352 2.29079 9.78049C2.3641 9.95746 2.47154 10.1183 2.60698 10.2537L3.89615 11.5421C3.6226 11.2687 3.25164 11.1151 2.86485 11.1152C2.47807 11.1152 2.10715 11.269 1.8337 11.5425C1.56025 11.8161 1.40667 12.187 1.40674 12.5738C1.40681 12.9606 1.56052 13.3315 1.83407 13.605L3.89615 15.667Z" stroke="#00A63E" stroke-width="1.45833" stroke-linecap="round" stroke-linejoin="round"/>
<path d="M7 10.5L10.5 7" stroke="#00A63E" stroke-width="1.45833" stroke-linecap="round" stroke-linejoin="round"/>
</g>
<defs>
<clipPath id="clip0_3455_1689">
<rect width="17.5" height="17.5" fill="white"/>
</clipPath>
</defs>
</svg>
